<?xml version="1.0" encoding="UTF-8"?>
<svg width="829px" height="196px" viewBox="0 0 829 196" version="1.1" xmlns="http://www.w3.org/2000/svg" xmlns:xlink="http://www.w3.org/1999/xlink">
    <!-- Generator: Sketch 52.2 (67145) - http://www.bohemiancoding.com/sketch -->
    <title>squarespace-logo-horizontal-black</title>
    <desc>Created with Sketch.</desc>
    <defs>
        <polygon id="path-1" points="0.441008333 0.396383333 33.6288333 0.396383333 33.6288333 50.8807167 0.441008333 50.8807167"></polygon>
    </defs>
    <g id="squarespace-logo-horizontal-black" stroke="none" stroke-width="1" fill="none" fill-rule="evenodd">
        <rect id="clear-space" fill="#FFFFFF" opacity="0" x="0" y="0" width="828" height="196"></rect>
        <g transform="translate(62.000000, 47.000000)" id="squarespace-logo">
            <g>
                <path d="M26.1545935,54 L65.6521739,14.0187881 C68.3357,11.3024034 71.9062611,9.80874639 75.7122438,9.80874639 C79.5154239,9.80874639 83.0859849,11.3009849 85.7667084,14.0173697 L88.8440052,17.1323466 L95,10.9009742 L91.9227032,7.78599722 C87.5996338,3.40999358 81.8430149,1 75.7094412,1 C69.5786701,1.00141848 63.8206498,3.41141205 59.4975804,7.78883417 L20,47.7686276 L26.1545935,54 Z" id="Fill-1" fill="#000000"></path>
                <path d="M79,27.2992382 L72.8148815,21.0770968 L33.1318482,60.9990813 C27.5591873,66.605099 18.4919979,66.6065153 12.920745,61.001914 C7.34808412,55.3958963 7.34808412,46.2730161 12.920745,40.6669984 L47.1634646,6.22072503 L40.9783461,0 L6.7370344,34.4462734 C-2.24567813,43.4827547 -2.24567813,58.1875742 6.7370344,67.2226391 C11.0805561,71.5921602 16.8644092,74 23.0241846,74 C29.185368,74 34.9720371,71.5907438 39.3155587,67.2212227 L79,27.2992382 Z" id="Fill-3" fill="#000000"></path>
                <path d="M118.26188,34.7760743 C113.919747,30.4064695 108.135868,28 101.973249,28 C95.812038,28.0014164 90.0253432,30.4078859 85.6818022,34.7789071 L46,74.7002393 L52.1823302,80.9224998 L91.8669483,40.9997512 C97.4410419,35.3936262 106.506864,35.3950426 112.078141,40.9983348 C114.772967,43.709331 116.256952,47.3183271 116.256952,51.1638626 C116.256952,55.0108144 114.772967,58.6212269 112.078141,61.3322232 L77.8366772,95.7791559 L84.0218233,102 L118.26188,67.5544837 C127.24604,58.5178295 127.24604,43.8127285 118.26188,34.7760743" id="Fill-5" fill="#000000"></path>
                <path d="M98.8455215,48 L59.348679,87.9812119 C53.8009604,93.594128 44.7780352,93.596965 39.2331191,87.9826303 L36.1558798,84.8676534 L30,91.0990258 L33.0772393,94.2140028 C37.4002279,98.5900064 43.1567393,101 49.2915997,101 C55.4222563,100.998582 61.1787676,98.5885879 65.5031576,94.2111658 L105,54.2313724 L98.8455215,48 Z" id="Fill-7" fill="#000000"></path>
                <path d="M161.475082,61.4105051 C161.984567,63.9616431 163.178496,65.9588687 165.054072,67.397899 C166.928248,68.8397845 169.39449,69.5592997 172.452798,69.5592997 C175.462116,69.5592997 177.78839,68.8512054 179.433018,67.4335892 C181.077646,66.0174007 181.89926,64.1515152 181.89926,61.8359327 C181.89926,60.7024108 181.679509,59.7459125 181.240009,58.9664377 C180.799109,58.186963 180.186047,57.5259798 179.399425,56.9820606 C178.610004,56.4409966 177.638624,55.9784512 176.481086,55.6015623 C175.323548,55.2232458 174.026041,54.8220875 172.589966,54.3966599 L168.840215,53.3345185 C166.616118,52.7206465 164.624369,51.976862 162.864967,51.1017374 C161.104166,50.2280404 159.599506,49.2001616 158.349589,48.0195286 C157.099672,46.8388956 156.149287,45.4812391 155.501234,43.9451313 C154.853181,42.4104512 154.528454,40.6259394 154.528454,38.5958788 C154.528454,36.4701684 154.94556,34.5100606 155.779771,32.7141279 C156.612582,30.9210505 157.793915,29.3835152 159.322369,28.1086599 C160.850823,26.8338047 162.702604,25.8301953 164.880511,25.096404 C167.055619,24.3668956 169.509264,24 172.242845,24 C177.383882,24 181.458359,25.239165 184.470478,27.7189226 C187.479797,30.2001077 189.239198,33.5178721 189.750083,37.6750707 L181.41357,38.383165 C180.902685,36.2574545 179.885115,34.6042828 178.356661,33.4236498 C176.828207,32.2430168 174.697889,31.6519865 171.965708,31.6519865 C169.418284,31.6519865 167.426535,32.2544377 165.99186,33.4593401 C164.554385,34.6642424 163.836348,36.211771 163.836348,38.1004983 C163.836348,39.1869091 164.0463,40.0948687 164.463406,40.8272323 C164.880511,41.5610236 165.480975,42.1977374 166.268997,42.740229 C167.055619,43.2841481 168.017201,43.7681077 169.150945,44.1921077 C170.286088,44.6175354 171.570997,45.0686599 173.007072,45.539771 L176.55107,46.6732929 C178.772367,47.3813872 180.776714,48.1251717 182.55851,48.9046465 C184.341707,49.6841212 185.858963,50.6177778 187.108881,51.7041886 C188.360197,52.7905993 189.32178,54.0897239 189.992228,55.6015623 C190.664076,57.1134007 191,58.9792862 191,61.1992189 C191,63.5619125 190.536705,65.7233131 189.611514,67.6819933 C188.683524,69.6435286 187.388817,71.3081212 185.720395,72.6771987 C184.053372,74.0477037 182.07422,75.1112727 179.780139,75.8650505 C177.487458,76.6202559 174.952632,77 172.174261,77 C167.033224,77 162.748794,75.7722559 159.322369,73.3153401 C155.894545,70.8584242 153.788022,67.1509226 153,62.1899798 L161.475082,61.4105051 Z" id="Fill-9" fill="#000000"></path>
                <path d="M226.860781,32.6167276 C224.36183,32.6167276 222.127326,33.0870889 220.160067,34.0249695 C218.191409,34.9642712 216.524976,36.2659359 215.160767,37.9313845 C213.79376,39.5982542 212.751364,41.5706456 212.033581,43.8442956 C211.317196,46.1222087 210.959004,48.5976451 210.959004,51.272026 C210.959004,53.9478279 211.32839,56.4346326 212.069959,58.7352822 C212.808731,61.0345108 213.863719,63.0282176 215.229327,64.7192448 C216.593536,66.40743 218.261368,67.7332521 220.230027,68.6967113 C222.195886,69.6573285 224.43039,70.137637 226.93074,70.137637 C229.43109,70.137637 231.664195,69.681486 233.632853,68.7663419 C235.598713,67.8511977 237.266545,66.5722696 238.632153,64.9281364 C239.997761,63.2868453 241.05135,61.3030857 241.791521,58.9811206 C242.531692,56.6577345 242.902477,54.1112464 242.902477,51.3430775 C242.902477,48.6203816 242.531692,46.1094194 241.791521,43.8101908 C241.05135,41.5123833 239.997761,39.5399919 238.632153,37.8972797 C237.266545,36.2559886 235.587519,34.9642712 233.596474,34.0249695 C231.606828,33.0870889 229.361131,32.6167276 226.860781,32.6167276 M226.93074,25 C230.680565,25 234.107178,25.6465692 237.209179,26.9397077 C240.30978,28.2328461 242.94865,30.0418189 245.125787,32.3694681 C247.300126,34.6985384 248.988946,37.4837596 250.195047,40.727974 C251.398349,43.9721884 252,47.5219245 252,51.3771823 C252,55.3759643 251.363369,58.9839626 250.091507,62.2040195 C248.815447,65.4254974 247.0007,68.2107186 244.638869,70.5611043 L251.306003,78.5316687 L251.306003,81 L242.833916,81 L238.180215,75.2178238 C236.559955,75.9695493 234.822163,76.5564352 232.972436,76.9799026 C231.11991,77.4033699 229.128865,77.6151035 227.0007,77.6151035 C223.157129,77.6151035 219.696936,76.9671133 216.618721,75.6753959 C213.539107,74.3822574 210.922625,72.5718636 208.770673,70.2442144 C206.617322,67.9165652 204.950888,65.1441332 203.771373,61.9212343 C202.590458,58.7011774 202,55.1869671 202,51.3771823 C202,47.5219245 202.590458,43.9849777 203.771373,40.7620788 C204.950888,37.543443 206.628515,34.7681689 208.805653,32.4405197 C210.979992,30.1128705 213.607668,28.2911084 216.687281,26.9738124 C219.766895,25.6593585 223.180915,25 226.93074,25" id="Fill-11" fill="#000000"></path>
                <path d="M286,69.7029564 C289.552705,69.7029564 292.320413,68.5824206 294.304518,66.3384941 C296.287228,64.0945675 297.279978,60.6587334 297.279978,56.0295644 L297.279978,25 L306,25 L306,56.2422521 C306,59.9264597 305.538483,63.0782344 304.615449,65.700431 C303.691021,68.3212001 302.377579,70.470916 300.670943,72.1481512 C298.964306,73.8253864 296.864473,75.0529798 294.374233,75.8323588 C291.882599,76.6117379 289.091188,77 286,77 C282.861405,77 280.05884,76.6117379 277.592303,75.8323588 C275.122978,75.0529798 273.035694,73.8253864 271.329057,72.1481512 C269.622421,70.470916 268.307585,68.3212001 267.383157,65.700431 C266.460123,63.0782344 266,59.9264597 266,56.2422521 L266,25 L274.720022,25 L274.720022,56.0295644 C274.720022,60.6587334 275.711378,64.0945675 277.695482,66.3384941 C279.679587,68.5824206 282.447295,69.7029564 286,69.7029564" id="Fill-13" fill="#000000"></path>
                <path d="M330.982023,54.2032215 L347.667612,54.2032215 L344.921434,46.26462 C343.840551,43.1554046 342.973859,40.6242564 342.317103,38.6753844 C341.658928,36.7251094 341.071677,35.007745 340.556768,33.521888 L338.375145,33.521888 C338.092867,34.3104164 337.810589,35.100348 337.52973,35.8888764 C337.247453,36.6788079 336.931131,37.5613425 336.579348,38.5350769 C336.226146,39.5102144 335.84032,40.6242564 335.417612,41.8786059 C334.994905,43.1301493 334.478578,44.5935571 333.868631,46.26462 L330.982023,54.2032215 Z M315,73.5628578 L332.953711,26 L346.260479,26 L364,73.5628578 L364,76 L355.270669,76 L350.202437,61.7237064 L328.306768,61.7237064 L323.238536,76 L315,76 L315,73.5628578 Z" id="Fill-15" fill="#000000"></path>
                <path d="M383.645495,48.8413077 L391.245776,48.8413077 C394.593552,48.8413077 397.230471,48.2309527 399.15934,47.013049 C401.08821,45.7937421 402.054752,43.8041252 402.054752,41.0413919 C402.054752,38.2351621 401.076971,36.280623 399.124219,35.1763715 C397.172871,34.0735232 394.547192,33.5206959 391.245776,33.5206959 L383.645495,33.5206959 L383.645495,48.8413077 Z M413,76 L404.562424,76 L389.293024,56.3620036 L383.645495,56.3620036 L383.645495,76 L375,76 L375,26 L391.245776,26 C393.801213,26 396.231617,26.1739862 398.531369,26.5219587 C400.832526,26.8699312 402.913121,27.6711099 404.773152,28.9240915 C408.722208,31.5226603 410.700248,35.4457696 410.700248,40.68921 C410.700248,42.9650624 410.363082,44.9490669 409.687345,46.6440297 C409.013013,48.3375894 408.118119,49.7757822 407.004067,50.9600112 C405.887205,52.1442402 404.597545,53.106777 403.135088,53.8476217 C401.669821,54.5912726 400.146956,55.1483092 398.56649,55.5187316 L413,73.5613863 L413,76 Z" id="Fill-17" fill="#000000"></path>
                <polygon id="Fill-19" fill="#000000" points="424 26 456.509796 26 456.509796 33.6593894 432.599693 33.6593894 432.599693 46.7514873 454.832117 46.7514873 454.832117 54.2719722 432.599693 54.2719722 432.599693 68.3392075 457 68.3392075 457 76 424 76"></polygon>
                <path d="M476.476169,61.4105051 C476.984236,63.9616431 478.178122,65.9588687 480.053628,67.397899 C481.929134,68.8397845 484.395285,69.5592997 487.452081,69.5592997 C490.461289,69.5592997 492.787477,68.8512054 494.433444,67.4335892 C496.076611,66.0174007 496.899595,64.1515152 496.899595,61.8359327 C496.899595,60.7024108 496.679853,59.7459125 496.238969,58.9664377 C495.799484,58.186963 495.185046,57.5259798 494.398453,56.9820606 C493.61046,56.4409966 492.637716,55.9784512 491.481621,55.6015623 C490.322726,55.2232458 489.025267,54.8220875 487.589245,54.3966599 L483.839632,53.3345185 C481.617017,52.7206465 479.623941,51.976862 477.864604,51.1017374 C476.103867,50.2280404 474.599263,49.2001616 473.350792,48.0195286 C472.099521,46.8388956 471.149171,45.4812391 470.501142,43.9451313 C469.853112,42.4104512 469.528398,40.6259394 469.528398,38.5958788 C469.528398,36.4701684 469.945488,34.5100606 470.779669,32.7141279 C471.612449,30.9210505 472.793738,29.3835152 474.322136,28.1086599 C475.850534,26.8338047 477.702247,25.8301953 479.880074,25.096404 C482.055101,24.3668956 484.510055,24 487.242136,24 C492.382983,24 496.457311,25.239165 499.469319,27.7189226 C502.478527,30.2001077 504.239263,33.5178721 504.748729,37.6750707 L496.412523,38.383165 C495.903057,36.2574545 494.884125,34.6042828 493.357127,33.4236498 C491.828729,32.2430168 489.69709,31.6519865 486.965009,31.6519865 C484.41768,31.6519865 482.426004,32.2544377 480.991381,33.4593401 C479.555359,34.6642424 478.837348,36.211771 478.837348,38.1004983 C478.837348,39.1869091 479.045893,40.0948687 479.462983,40.8272323 C479.880074,41.5610236 480.480516,42.1977374 481.268508,42.740229 C482.055101,43.2841481 483.016648,43.7681077 484.15175,44.1921077 C485.286851,44.6175354 486.571713,45.0686599 488.006335,45.539771 L491.550203,46.6732929 C493.772818,47.3813872 495.775691,48.1251717 497.558821,48.9046465 C499.340552,49.6841212 500.859153,50.6177778 502.107624,51.7041886 C503.358895,52.7905993 504.320442,54.0897239 504.992265,55.6015623 C505.662689,57.1134007 506,58.9792862 506,61.1992189 C506,63.5619125 505.536722,65.7233131 504.610166,67.6819933 C503.68221,69.6435286 502.387551,71.3081212 500.71919,72.6771987 C499.052228,74.0477037 497.073149,75.1112727 494.780552,75.8650505 C492.486556,76.6202559 489.951823,77 487.173554,77 C482.034107,77 477.748435,75.7722559 474.322136,73.3153401 C470.894438,70.8584242 468.787993,67.1509226 468,62.1899798 L476.476169,61.4105051 Z" id="Fill-21" fill="#000000"></path>
                <path d="M527.86012,49.2587833 L536.366065,49.2587833 C537.925583,49.2587833 539.355141,49.1325065 540.65474,48.8785498 C541.95291,48.6259962 543.088274,48.2008643 544.056546,47.601751 C545.026247,47.0040409 545.781728,46.1986755 546.325845,45.185655 C546.868535,44.1740375 547.13988,42.9309126 547.13988,41.4576832 C547.13988,39.9395555 546.868535,38.6641598 546.325845,37.6286901 C545.781728,36.5932203 545.036244,35.7766304 544.092249,35.1775171 C543.146827,34.5784039 542.024317,34.153272 540.726146,33.9007184 C539.42512,33.6481648 538.019839,33.5204849 536.508878,33.5204849 L527.86012,33.5204849 L527.86012,49.2587833 Z M519,26 L537.571407,26 C541.020341,26 543.915161,26.3942642 546.254439,27.1841958 C548.593716,27.9727242 550.483133,29.0629139 551.925544,30.457571 C553.3651,31.8494219 554.406207,33.485408 555.043153,35.3669323 C555.680099,37.2456505 556,39.2773039 556,41.4590863 C556,44.0603884 555.562992,46.3221461 554.688976,48.2485689 C553.814961,50.1749916 552.551065,51.7646762 550.89729,53.0190257 C549.242087,54.2719722 547.234136,55.2120328 544.872009,55.8392075 C542.508453,56.4663823 539.839277,56.7792682 536.863054,56.7792682 L527.86012,56.7792682 L527.86012,76 L519,76 L519,26 Z" id="Fill-23" fill="#000000"></path>
                <path d="M573.982023,54.2032215 L590.667612,54.2032215 L587.921434,46.26462 C586.840551,43.1554046 585.972441,40.6242564 585.315684,38.6753844 C584.658928,36.7251094 584.071677,35.007745 583.556768,33.521888 L581.373726,33.521888 C581.092867,34.3104164 580.810589,35.100348 580.528312,35.8888764 C580.247453,36.6788079 579.929713,37.5613425 579.57793,38.5350769 C579.226146,39.5102144 578.84032,40.6242564 578.417612,41.8786059 C577.994905,43.1301493 577.478578,44.5935571 576.868631,46.26462 L573.982023,54.2032215 Z M558,73.5628578 L575.953711,26 L589.259061,26 L607,73.5628578 L607,76 L598.270669,76 L593.202437,61.7237064 L571.306768,61.7237064 L566.237118,76 L558,76 L558,73.5628578 Z" id="Fill-25" fill="#000000"></path>
                <path d="M660,62.7802625 C659.205666,64.7324043 658.163985,66.5693837 656.879199,68.2926052 C655.591586,70.0158267 654.036839,71.5255766 652.213545,72.8148328 C650.390251,74.104089 648.272968,75.1236969 645.864524,75.8736563 C643.456079,76.6236158 640.779088,77 637.832135,77 C634.090849,77 630.68878,76.3483498 627.625928,75.0464538 C624.563077,73.7473667 621.948275,71.9454978 619.782937,69.6464646 C617.617598,67.3446227 615.945539,64.6046022 614.766758,61.4207854 C613.587977,58.238373 613,54.7877167 613,51.0688165 C613,47.3527251 613.587977,43.9020688 614.766758,40.718252 C615.945539,37.5358397 617.627492,34.781775 619.816859,32.4574623 C622.006225,30.1359585 624.633747,28.3102144 627.696599,26.9872522 C630.75945,25.6614811 634.184134,25 637.973476,25 C643.490001,25 648.110426,26.2794253 651.827685,28.8340626 C655.546357,31.3886998 658.176706,34.781775 659.720146,39.0104791 L650.811446,40.7519581 C649.594503,38.1973208 647.898415,36.1861935 645.724596,34.7227894 C643.549364,33.2593853 640.919015,32.5276832 637.832135,32.5276832 C635.354434,32.5276832 633.143867,33.0023767 631.20326,33.9517636 C629.262653,34.9011505 627.625928,36.2086642 626.293086,37.875709 C624.960244,39.5413493 623.942592,41.5089397 623.241542,43.77848 C622.540493,46.0466159 622.189968,48.4762599 622.189968,51.0688165 C622.189968,53.7077189 622.5518,56.1500027 623.276877,58.3956679 C624.000541,60.6427375 625.053529,62.5850483 626.433014,64.2296224 C627.812498,65.8727921 629.484558,67.1564306 631.449193,68.0819424 C633.412414,69.0088586 635.658317,69.4723168 638.18266,69.4723168 C641.457523,69.4723168 644.157129,68.6816291 646.285719,67.1016583 C648.414308,65.5216875 650.06234,63.5934208 651.231227,61.315454 L660,62.7802625 Z" id="Fill-27" fill="#000000"></path>
                <g id="Group-31" transform="translate(671.000000, 25.000000)">
                    <mask id="mask-2" fill="white">
                        <use xlink:href="#path-1"></use>
                    </mask>
                    <g id="Clip-30"></g>
                    <polygon id="Fill-29" fill="#000000" mask="url(#mask-2)" points="0.441008333 0.396383333 33.1362583 0.396383333 33.1362583 8.12996667 9.08975833 8.12996667 9.08975833 21.3488833 31.4490083 21.3488833 31.4490083 28.9422167 9.08975833 28.9422167 9.08975833 43.1457167 33.6292583 43.1457167 33.6292583 50.8807167 0.441008333 50.8807167"></polygon>
                </g>
            </g>
        </g>
    </g>
</svg>